<svg xmlns="http://www.w3.org/2000/svg" viewBox="0 0 154.6 161">
<!-- SVG created with Arrow, by QuiverAI (https://quiver.ai) -->
  <style type="text/css">.cls-0 {fill:#5CC7C8;}
.cls-1 {fill:#FDFAED;}
.cls-2 {fill:#3ABABA;}
.cls-3 {fill:#FDEBBB;}
.cls-4 {fill:#489094;}
.cls-5 {fill:#FFF8E8;}
.cls-6 {fill:#36699D;}
.cls-7 {fill:#1A4E86;}
.cls-8 {fill:#7DACDC;}
.cls-9 {fill:#063A64;}
.cls-10 {fill:#FFB494;}
.cls-11 {fill:#FEDBC7;}
.cls-12 {fill:#FBCCA9;}
.cls-13 {fill:#FFFFFF;}
.cls-14 {fill:url(#SVGID_1_);}
.cls-15 {fill:#4C2515;}
.cls-16 {fill:#6A391B;}
.cls-17 {fill:none;stroke:#0B385B;stroke-width:1.8743;stroke-linecap:round;stroke-linejoin:round;stroke-miterlimit:10;}
.cls-18 {fill:#87C55E;}
.cls-19 {fill:#73A64F;}
.cls-20 {fill:#DF6856;}
.cls-21 {fill:#FBDEC8;}
.cls-22 {fill:#FCAD9A;}
.cls-23 {fill:#8CB3DD;}
.cls-24 {fill:#FB8D86;}
.cls-25 {fill:#84332E;}
.cls-26 {fill:#FAC1A0;}
.cls-27 {fill:#EBECED;}
.cls-28 {fill:#08375A;}
.cls-29 {fill:#FCEBE1;}
.cls-30 {fill:#FEE4CF;}
.cls-31 {fill:#8BC55B;}
.cls-32 {fill:#DC6656;}</style>
  <path class="cls-0" d="m152.5 85c0 37.9-28.4 74-74.9 74-44.7 0-75.5-34.4-75.5-73.6 0-35.2 27.1-75.7 75.5-75.7 42.7 0 74.9 33.8 74.9 75.3z"/>
  <path class="cls-1" d="m148.6 85c0 32-23 64-59.3 69.8-46.4 5.7-83.5-26.7-83.6-69.6-0.1-29.9 22-71.4 71.7-71.5 37.2-0.1 71.2 28.9 71.2 71.3z"/>
  <path class="cls-2" d="m45.9 147.9 1.8 0.8c5.6-8.8 14-12.3 14-12.3l1.2-1.1c0.1 0.7-10.3 1.7-17 12.6z"/>
  <path class="cls-2" d="m110.4 147.7h0.1 0.1l0.1-0.1 0.2-0.1h0.1-0.1l1-0.5c-6.2-10.1-16.7-11.9-16.6-11.6v1l6.2 2.7c4.6 2.9 7.9 7.2 8.9 8.6z"/>
  <path class="cls-0" d="m108.8 147.8 0.6-0.3h0.1l0.8-0.2c-1.6-2.5-6.1-7.2-12.4-9.4l-1.5-0.5h-35c-7.7 2.4-12.7 8.2-13.8 11.1l1.4 0.4c9.1 4.4 19.7 8 28.6 7.8 10.6-0.2 22.1-3.2 31.2-8.9z"/>
  <path class="cls-4" d="m59.4 138c-0.6 4.7 2.9 10.6 10.5 10.4 4.8-0.1 7.7-2.5 8.9-4.4 2.9 3.9 8.1 5 11.6 4.3 4-0.6 8.7-4.3 7.9-10.4l-1.9-1.4h-34.6l-2.4 1.5z"/>
  <path class="cls-3" d="m62.4 135.4c-3.6 3.5-1.5 11.7 7.2 11.7 5.4 0 8.3-2.9 9-4.7 1 1.5 4.3 4.9 9.8 4.7s9.4-3.7 8.7-8.7c-0.3-1.5-1.1-2.4-1.4-3l-15.4-1.4h-6.9l-11 1.4z"/>
  <path class="cls-5" d="m76.3 149.9c0.1 3 4.8 3.6 4.9 0.3 0-2.8-5-3.8-4.9-0.3z"/>
  <path class="cls-6" d="m26.7 66.4c-2.5 11.9-0.6 23.4 6.2 31.6-5-0.3-9.6 4.5-7.5 11.9-1.4 5.6 1.2 16.5 11.2 20.1 2.4 3.6 3.8 4.4 2.4 4.6-5.3 0.9-12.1-1.2-17.1-5.6-3.9-4.1-6.9-8.1-8.7-12.5-0.6-4.7 4.7-9.8 3.4-21-1.4-11.5 0.9-22.8 2.8-26.8l7.3-2.3z"/>
  <path class="cls-7" d="m26.6 68.3c-3.5 1.7-7 4.8-8.1 7.6l-1.5-1.9c0.6-2.3 1.4-4.9 2.3-6.9l7.4-1.1-0.1 2.3z"/>
  <path class="cls-7" d="m23.9 132.1c2.6 1.8 8.8 4.3 15 3.6 2.1-0.2 2.1-1.5 0.5-2.7-2.8-2.1-5.3-6.7-5.3-7.5-0.7 3.2 3.9 8.8 13.3 11 3.2 0.6 7.4 0.4 10.3-1.1 1.9-1 0.4-2.7 0.4-2.7l-16.9-13.2c-4.6 1.8-13.5 0.3-16.5-9.2-1.7 5.4-0.6 15.4 11.4 19.8-6.1 0.5-9.7-1-16.4-3.6l4.2 5.6z"/>
  <path class="cls-6" d="m91 26.6c-18.6-4.4-39.3-2.2-56 13l-2.1 2.3v3.6l39 1.9 40.4-7.4 1.3-4.5c-8-5.8-16.9-7.9-22.6-8.9z"/>
  <path class="cls-8" d="m88 26.9c4.2 0.7 16.6 3.6 23.9 8.8l0.2 2.4c-2.3-1.9-15.5-9-24.1-11.2z"/>
  <path class="cls-7" d="m36.6 40.7c3.4-0.6 7.3-1.8 8.3-0.1l-3 3.8-8.5-1 3.2-2.7z"/>
  <path class="cls-9" d="m31.9 42.1c4.8-5.1 18.5-18 40.8-18.3 19.7-0.7 30.8 5.6 39.2 11.1l-0.5 1.5c-5.8-3.7-18-11.2-34.8-11-19.9 0-33.5 7.6-43.9 17.8l-0.8-1.1z"/>
  <path class="cls-6" d="m117.2 39c6.5 4.4 22.5 23.1 21.4 50l-1 9c0.1 7.6 3.1 11.9 5.4 15.6l-10.6 16.1-2.8 3.3c-6.5 2.1-11 2.9-10.7 0.7-2.5 1.3-7.4 4.3-14.4 1.9-2.9-1.2-3-2.1-2.6-2.6l14.8-13.4c3.8 1.4 11.3 0.4 15.2-6.5 3.2-8.6-0.8-13.1-3.9-14.5 4.7-5.2 5.4-10.6 5.4-16.5 0-10.4-4.9-21.1-10.2-25.6-2.6-5.5-8.6-13.3-12.5-16.5l3.4-11.1c2.3 0.7 1.3-1.5 3.1 2.1v8z"/>
  <path class="cls-10" d="m33.2 45.1c-0.5-8.1-6-15.7-16.5-18.2l-6.1-1.5-1.7 0.7v7.9l2.2 7.4 5 6 6.6 3.8c-6.3 2.4-9.2 8-11.7 15.2 2.6 2.1 10.1 3 15.7-0.4 3.2-2.4 3.9-3.4 3.9-3.4-3 7.4-3.4 23.4 2.1 32.8l1.8 1.6 2.5-32.1 6.4-8.5 0.5-9.3c7.2-7.1 18-15.6 36.7-17.1 18.5-0.6 37.6 9.6 42.5 24.2l-13.7-8.3-21.5-5.5-19.5 1.5-14.3 5.5-11.2 6.8 0.8-7.8-10.5-1.3z"/>
  <path class="cls-1" d="m43.4 46.4c7.5-7.2 20.2-15.5 37-16 13.2-0.4 23.5 4 29.8 8l1.2-0.9c-8.4-5-16.8-10.5-31-10.9-17.3-0.5-29.8 4.6-39.7 12.4l6.3 2-7.1 5.4h3.5"/>
  <path class="cls-7" d="m125 56.9 5.1 6.1 3.4 8.4 1.1 9.7-1.2 6.6-1-6.6c0.5-12.1-5.4-20-8.4-23l1-1.2z"/>
  <path class="cls-7" d="m117 40.6 2 0.5 2.5 2.6-1.9 1.7 3 0.2 4.5 5.9-1.5 5.4-5.2-5.4-4.8-7.3 1.4-3.6z"/>
  <path class="cls-8" d="m113.4 39 2.2 1.7-0.6 1.9-3.1-2.6 1.5-1z"/>
  <path class="cls-11" d="m101.6 60.4c-2.6 9.2-15.6 23.7-35.2 24.5l-4.5-0.3 2.7-3.2c-9.5 0.8-15.1 4.6-23.6 9.5-2.1 4.5-2 7.6-2 11.3-2.8 0-7.3-5.3-11.8-0.5-3.6 4-0.5 15 6.3 17.4 3.5 0.9 6.9 0.5 7.6-0.1 4 8 15.5 16.6 37.5 17.4 13.4-0.3 31.1-2.8 38.4-16.8 4.5 1.4 11.5-0.1 14.2-6 3.3-7.4 0.9-13.5-4.5-14.6-2.1 0.5-6.2 4.1-6.5 3.1 4.7-19-6.7-30-18.6-41.7z"/>
  <path class="cls-12" d="m40.4 94.6c2.3-2.9 12.7-8.6 20.2-10.2l3.1-2.5c-6.2 1-13 3.7-22.3 8.8l-1 3.9z"/>
  <path class="cls-12" d="m100.6 63.1 7.4 4.3-6.4-7-1 2.7z"/>
  <path class="cls-12" d="m62.5 135.9c3.5 1.7 9.2 5.2 16.9 5.3 5.2 0 10.1-2.3 16.2-5.3l-0.2-2.4-21.7 2.4-11.2-0.9z"/>
  <path class="cls-8" d="m37.2 129.4c1.5 2.2 7.5 6.2 11.8 5.2-4.6-1-8.6-3.4-10-4.4l-1.8-0.8z"/>
  <path class="cls-8" d="m110 134.6c1.9 0 7.4-0.9 10-4.7-2.8 1.8-6.6 3.7-10 4.7z"/>
  <path class="cls-8" d="m121.6 133.6c0.8 0 2.1-0.2 2.4-0.2-0.6-1.5-0.9-3.4-1.1-4.4-0.5 1.7-0.9 3.9-2.3 4.2v0.3c0.5 0.1 1 0.1 1 0.1z"/>
  <path class="cls-7" d="m122.4 129.5c4.7-1.6 10.6-8.4 9.6-16.8l-3.3 3.3-5.2 3.4-6.4-0.4c-2.7 7-11.7 12.2-15.9 14 0 0.7 3 2 7.4 2 4.3 0 10.1-1.8 12-4.5l1.8-1z"/>
  <path class="cls-7" d="m133.6 129.1c-1.6 1.5-5.1 4-9.6 4.4-0.1-0.5-1.1-1.9-1-4.5l5.5-4 3.2-5 1.9 6v3.1z"/>
  <path class="cls-7" d="m134.1 128.2c3.3-3.5 6.5-10.2 7.6-12.1 0.2-2.4-5.7-6.7-5.2-15.7l-1.1 0.8-1.9 5.8-1.9 6.4-1.1 8 3.6 6.8z"/>
  <path class="cls-6" d="m41.2 89.9c3.7-1.2 14.5-8.7 24.9-8.9 8.6-4.3 15.9-12.9 20-23.1-3.5 10.5-16.6 22-24.6 26.7l4.9 0.3c19.3-1.5 31-14.3 34.8-26.5 7.5 9.2 23.2 20.8 18.9 43.6 8.5-1.5 15.5-14.3 12.9-27.5-2.6-13.4-13.4-31.8-40.1-34.6-19.5-1.5-31.8 2-49.4 13.7-6 6.8-16.6 24.6-11.8 41.4l9.5-5.1z"/>
  <path class="cls-17" d="m124 56.7c-2.5-8.7-11.8-20.8-27.6-25-17.4-4.6-36.7-1.6-50.8 9.5-11.1 8.9-19.5 23.8-19.2 36.2 0.6 14.1 5.7 18.6 9.2 23"/>
  <path class="cls-7" d="m116.9 38.1c8.5 7 22 23.6 21.2 50.8l-0.1 2-1.4 0.3 0.3-3.5c0-22.3-8.9-38.2-20.8-48.1l0.8-1.5z"/>
  <path class="cls-18" d="m106.7 4c-2 2.5-3.3 10 0.7 16.4 1.7 3.2 5.7 6.2 8.5 8l-4.3 10.7 3 3 5.1-10c3.9 2.4 10.8 5.6 15.7 4.5 4.8-0.7 11.5-4.1 11.6-7.2-0.4-3-3.9-7.8-9.4-8.8-4.9-0.7-9-0.2-17.5 4l1-6.9c0-4-3.7-14.2-11.1-14.2l-3.3 0.5z"/>
  <path class="cls-19" d="m111.5 38.6 3.1 3.8 1-2.4-3.5-2.5"/>
  <path class="cls-1" d="m107.4 4.9c4.1 0.8 12.2 5.7 12.5 19.5 1.6-4 1.6-13.9-4.8-18.2-3.2-2.1-6.5-2.2-7.7-1.3z"/>
  <path class="cls-1" d="m121.6 25.6c4.1-2.5 12.9-4.9 24 3.8-0.6-3.5-6-9-14-8.5-3.9 0-10.2 2.5-10 4.7z"/>
  <path class="cls-20" d="m21.9 27.6c-2.9-1.2-6.2-1.6-10.8-3-2-0.2-2.6 1.3-2.7 2.4-1.3 17.4 7.2 23.4 13.7 24.2-7.5 2.4-9.7 9.9-11.5 14.9-0.1 1.3 0.6 1.9 1.5 2.1 10.5 2.8 16.6-1.8 19.6-7.2 0.4-1 0.7-1.9 0.7-1.9 6.3 3.5 13.2-1.4 12-8.1l-2.3-5.5-5.2-1.9-3.5 0.4c-0.4-4.1-3.2-13-11.5-16.4z"/>
  <path class="cls-10" d="m10.6 26.9c-0.7 12 3.5 22.7 17.9 23.2l0.6-2.2c-2.7-2-5.1-4.3-4.6-5.2 0.7-1.1 4.1 1.7 5.4 4.2l1.8-1.9c-1.1-8.9-6.7-14.6-15.3-16.6l-5.8-1.5z"/>
  <path class="cls-10" d="m30.2 57.7c-1.3 5-7.2 11.4-17.5 8.4 2-2.4 3.4-14 15.7-13.5 0.2 1.6 0.7 3.5 1.8 5.1z"/>
  <path class="cls-10" d="m32.9 46.6c-2.5 2-4 8.8 1.1 11.3 4 2.1 9.9-1.3 8.5-7.9-0.8-3.9-5.1-6.5-9.6-3.4z"/>
  <path class="cls-21" d="m35.6 45.4-3.5 1.5c-1 0.7-0.7 3.1 0.9 2.5 2-0.7 3.6-2.5 2.6-4z"/>
  <path class="cls-28" d="m121.6 23.1c1.9-6.9 0.1-15.6-7-19.7-2-1-6.6-2-9.2-0.3-4.3 3.8-4.8 19.6 9 25.9l0.1 0.1-0.1 0.3-4 8.7 1.5 1.3 4.8-10.4c0.4-0.6-2.3-1.3-3.3-2.3-8.3-5.6-10.3-17.1-6.5-21.2 1.2-1.5 5.5-1.6 8.5 0.7 5.5 4.3 6.1 11.4 4.1 19.7l0.6 0.5c3.9-3.2 7.8-5.3 13.5-5.3 7 0.1 11.9 4.3 12 7.9-1.6 5-13.5 10-22.5 3.9l-3.2-2.5-0.9 0.2-5.1 11.8 1.6 1.1 4.4-10.5c6.5 6 20 7.6 27.2-0.5 4.4-5.5-4.2-13.4-12.7-13.5-4.9-0.1-8.8 1-12.8 4.1z"/>
  <path class="cls-12" d="m30.5 106.4c-1.6 6.1 9.5 10.6 9.1 5.7-2.2-3.7-5-7.6-9.1-5.7z"/>
  <path class="cls-26" d="m30.3 106.9c-0.2-4.2 6.4-4 9.3 4.2 0.4 1.8-2.7-7.6-9.3-4.2z"/>
  <path class="cls-12" d="m118.4 112.1c2 4.8 10.2 0.5 9-5.2-3.2-2.3-7.5 1.8-9 5.2z"/>
  <path class="cls-26" d="m118.4 112.5c1.2-6.6 8.5-10.5 9.1-5.9-3.5-2.1-7 2.3-9.1 5.9z"/>
  <path class="cls-22" d="m45.6 117.6c0 6 12.9 7.6 13.1 0.9-0.2-5.9-12.8-7.4-13.1-0.9z"/>
  <path class="cls-22" d="m99.9 118c-0.2 5.7 12.5 7.1 12.7-0.1-0.6-6.2-12.7-5.3-12.7 0.1z"/>
  <path class="cls-23" d="m41.4 70.6c0 3.6 5.3-1.9 9.7-6.7 3.9-5 4-6.8 0.6-5.8-3.6 1.9-9.7 7.3-10.3 12.5z"/>
  <path class="cls-23" d="m52.2 68.4c-0.5 3.6 6.4-2.4 6.5-5-0.3-3.9-6.3 2-6.5 5z"/>
  <path class="cls-23" d="m122.4 59.7c1.1 2.9 8.6 9.9 10.5 21.8 0.7-14.5-7.5-23.1-9.9-22.9l-0.6 1.1z"/>
  <path class="cls-17" d="m33.4 99c-10.4-1.1-11.5 12.9-2.8 18.5 3.1 2.1 8 3 10.6 1.1 3.5 8.9 15.3 17.4 37.7 17.8 18.2-0.2 32.5-4.9 38.1-17.8 2.6 2.5 9.5 1.8 13.5-3.7 4.5-6.9 2.1-14.9-2.9-16"/>
  <path class="cls-13" d="m65.9 96.1c-3.3-5.7-14.9-6-17.8 2l-0.1 4.5c0.5 9 8.5 12.4 13.9 10.4 5.6-2.3 5.7-12.4 4-16.9z"/>
  <path class="cls-13" d="m93.4 95.6c4.5-7 15.7-4.5 16.7 3.5l0.3 3.6c-0.3 6.3-4.9 12-11.4 10.7-7.6-0.8-7.6-14.7-5.6-17.8z"/>
  <linearGradient id="SVGID_1_" x1="43.99" x2="66.27" y1="96.32" y2="96.32" gradientUnits="userSpaceOnUse">
    <stop stop-color="#4C2515" offset="0"/>
    <stop stop-color="#4C2515" offset="1"/>
  </linearGradient>
  <path class="cls-14" d="m46.9 97.7c-0.9-0.1-1.9-1.1-2.7-0.7-0.3 1.5 1.4 2.1 2.3 2.6l-0.1 1.1c-0.8 0-2.3-0.7-1.9 0.9 0.5 0.5 1.6 0.9 2 0.9 0.5 2.2 1.5 3.4 1.9 2.4-1-12.9 10.5-16 16.3-9.9 1.4 2.4 2.3 1.6 0.9-1-4.2-6.4-15-5.8-18.7 3.7z"/>
  <linearGradient id="SVGID_00000033371446271999347290000001487559539836793967_" x1="93.08" x2="114.6" y1="95.26" y2="95.26" gradientUnits="userSpaceOnUse">
    <stop stop-color="#4C2515" offset="0"/>
    <stop stop-color="#4C2515" offset="1"/>
  </linearGradient>
  <path d="m112.7 100.6" fill="url(#SVGID_00000033371446271999347290000001487559539836793967_)"/>
  <linearGradient id="SVGID_00000154395974313426414780000003038988889109805530_" x1="92.99" x2="114.6" y1="96.21" y2="96.21" gradientUnits="userSpaceOnUse">
    <stop stop-color="#4C2515" offset="0"/>
    <stop stop-color="#4C2515" offset="1"/>
  </linearGradient>
  <path d="m115 96.9c-0.6-0.3-1.3 0.8-3 0.8-3.9-10.2-16.1-10.3-19-2 0.4 1.7 0.9-1.1 4-2.3 4.6-2.4 12.5-0.5 13.1 8.2v3.5c0.8 0.8 2-1.1 2-2.7 2-0.3 3-1.4 2-1.8l-1.5 0.1-0.2-1.3c1-0.3 3.1-1.3 2.1-2.5" fill="url(#SVGID_00000154395974313426414780000003038988889109805530_)"/>
  <path class="cls-15" d="m53.1 103.4c-0.1 4.3 2 10.3 7.6 10.2 8-0.5 7.3-18.6-0.5-18.7-4.2 0-7.1 3.6-7.1 8.5z"/>
  <path class="cls-15" d="m99.2 94.7c-3 0-6.6 2.8-6.6 8.9-0.1 6.5 3.5 10.8 8 9.9 7.5-1.4 7.4-18.4-1.4-18.8z"/>
  <path class="cls-16" d="m55.7 109.1c1.4 4.5 7.8 4.8 8.9-0.6l-2.5-0.6c-1.5 1-3.5-0.2-4.1-0.9l-2.3 2.1z"/>
  <path class="cls-16" d="m94.9 109.4c1.6 4.1 7.5 4.7 9.1-0.7l-1.9-1.2c-1.1 1.2-4.1 1.2-5.2-0.5l-2 2.4z"/>
  <path class="cls-13" d="m55.4 99.6c0.6 4 5.2 3.4 5.1-0.5-0.5-3.5-5-3.5-5.1 0.5z"/>
  <path class="cls-13" d="m94.6 99.5c0.3 4 5.3 3.4 4.9-0.4-0.5-3.5-4.8-3.1-4.9 0.4z"/>
  <path class="cls-27" d="m61.9 108.1c-0.3 1.5 2.2 2 2.2 0.3-0.1-1.8-2.2-1.4-2.2-0.3z"/>
  <path class="cls-13" d="m100.6 108.4c-0.1 1.5 2.4 1.7 2.4 0-0.1-1.8-2.4-1.8-2.4 0z"/>
  <path class="cls-28" d="m40.2 90.9c-1.6 3.2-2.6 7-2.2 9.8-11.5-12.8-6.1-41.7 17.6-52 18.4-9.7 37-10.8 51.8-3.6l-6.9-1.9c-26.5-6.6-50.5 3.2-60.8 16.2-6.6 8-13 25.2-7 36l7.5-4.5z"/>
  <path class="cls-17" d="m41 90.7c6.9-2.8 15.1-9.7 25.1-9.8"/>
  <path class="cls-28" d="m61 83.7c-0.9 0.5-0.8 1.7 0.1 1.8 14.6 1.6 34.6-6 40.5-25.1 6.3 8 23.9 20.6 19.4 41.6-0.5 0.5-0.3 1.5 0.5 1.4 3-0.7 6.5-3.8 7.1-4.8l-7.6 2.9 0.7-3.8c2.8-16.6-9.5-28.2-19.6-40.1-0.9-1-1.5-0.2-1.9 1.5-4.3 11.9-16.8 24.4-36.7 24.9 10-4.9 19-15.3 22.9-26.4 0-1-0.7-0.7-0.8 0-3.9 9.4-11.5 17.4-18.9 22.3-0.8 0.5-4.7 3.5-5.7 3.8z"/>
  <path class="cls-29" d="m35.4 45.4c-2.4 0.2-3.9 2.1-3.5 3.2 0.1 1.5 1.1 1.5 2.2 0.4 1.4-0.9 2.4-2.6 1.3-3.6z"/>
  <path class="cls-30" d="m69.4 136 0.7 2.1 0.9-1.7-1.6-0.4z"/>
  <path class="cls-30" d="m86.6 136.7 0.6 1.4 1.3-1.4h-1.9z"/>
  <path class="cls-26" d="m77.6 110.4c0.4 0.6 1.6-1.2 2.9 0.1 1.1 0.1-0.3-3.9-2.9-1.1v1z"/>
  <path class="cls-15" d="m95.1 81.6c5.9-2.6 11.8-1.7 17 2.9 2 1.7 0.5-2.5-4.2-4.8-6-3.1-13.8 0.2-12.8 1.9z"/>
  <path class="cls-25" d="m70.4 116.9c0 3.8 2.3 11.2 8.6 11.3 6.6 0.2 8.9-7 8.9-11.5 0-1.8-1.7-1.2-2.5-1.2-4.2 0.1-8.7 0.1-13.5-0.1-1.2-0.2-1.5 0.7-1.5 1.5z"/>
  <path class="cls-24" d="m72.5 122.6c1.5 3 3.1 4.9 6.4 4.9 3.5 0 5.7-1.9 6.6-4.9-1.6-2.1-4.1-2.9-6.9-2.9-2.6 0.2-4.5 0.7-6.1 2.9z"/>
  <path class="cls-25" d="m71.6 117c-0.1 3.1 0.9 5.6 0.9 5.6 1.1-2 4.6-3 6.9-2.7 1.3-0.3 5.7 1.1 6.2 2.7 1-2.1 1-5.2 1-5.7-0.5-0.3-14.6-0.5-14.7-0.3l-0.3 0.4z"/>
  <path class="cls-7" d="m35.1 125.5c4.4 8.4 14.4 11.5 21.6 8l-6.1-3.6-5.6-4.4-4.1-5.9-6.3-0.1-6.7-2.6 7.2 8.6z"/>
  <path class="cls-31" d="m119.9 26c3.5-10.4-4.8-19.9-12.8-21.1-4.1 3.1-3.1 18.1 9.9 23.2l2.9-2.1z"/>
  <path class="cls-32" d="m29.1 47.9 0.9-1c-2.3-2.3-4.4-4.7-5.5-4.2-0.5 0.7 0.7 2.9 4.6 5.2z"/>
</svg>