<svg xmlns="http://www.w3.org/2000/svg" viewBox="0 0 260 220" role="img" aria-labelledby="title desc">
  <title id="title">EasyLaw 오류 탐정 캐릭터</title>
  <desc id="desc">돋보기와 흩어진 문서 사이에서 길을 찾는 EasyLaw 캐릭터</desc>
  <defs>
    <filter id="shadow" x="-20%" y="-20%" width="140%" height="150%">
      <feDropShadow dx="0" dy="10" stdDeviation="10" flood-color="#0b385b" flood-opacity=".16"/>
    </filter>
    <linearGradient id="hat" x1="38" x2="174" y1="28" y2="154" gradientUnits="userSpaceOnUse">
      <stop stop-color="#7ad6d8"/>
      <stop offset="1" stop-color="#2f9fa4"/>
    </linearGradient>
  </defs>
  <ellipse cx="129" cy="199" rx="78" ry="12" fill="#0b385b" opacity=".08"/>
  <g opacity=".96">
    <path d="M30 63l52-13 11 45-52 13z" fill="#fffaf0" stroke="#d8e4ee" stroke-width="3"/>
    <path d="M43 73l26-6M46 88l34-8M49 101l21-5" stroke="#8aa7bf" stroke-width="4" stroke-linecap="round"/>
    <path d="M184 48l42 11-9 35-42-11z" fill="#fffaf0" stroke="#d8e4ee" stroke-width="3"/>
    <path d="M193 63l20 5M190 75l24 6" stroke="#8aa7bf" stroke-width="4" stroke-linecap="round"/>
    <path d="M30 153l43 7-7 38-43-8z" fill="#fffaf0" stroke="#d8e4ee" stroke-width="3"/>
    <path d="M42 169l20 4M39 181l18 3" stroke="#8aa7bf" stroke-width="4" stroke-linecap="round"/>
  </g>
  <g filter="url(#shadow)">
    <path d="M62 116c0-43 33-76 76-76 42 0 75 33 75 76s-33 76-75 76c-43 0-76-33-76-76z" fill="#fff7e7"/>
    <path d="M62 113c2-42 34-73 76-73 37 0 68 26 74 62-30-17-68-13-94 12-19 18-40 23-56-1z" fill="url(#hat)"/>
    <path d="M83 63c21-26 60-37 95-18 8 5 15 11 20 18-37-12-76-8-115 0z" fill="#113d66"/>
    <path d="M96 80c-16 13-25 32-25 55 0 36 28 62 67 62 40 0 68-27 68-62 0-22-10-41-26-54-19 25-57 32-84-1z" fill="#fedbc7"/>
    <path d="M94 126c3-5 8-8 14-8s11 3 14 8M153 126c3-5 8-8 14-8 7 0 12 3 15 8" fill="none" stroke="#0b385b" stroke-width="7" stroke-linecap="round"/>
    <path d="M123 153c8 8 22 8 31 0" fill="none" stroke="#84332e" stroke-width="6" stroke-linecap="round"/>
    <circle cx="111" cy="137" r="5" fill="#fb8d86" opacity=".7"/>
    <circle cx="178" cy="137" r="5" fill="#fb8d86" opacity=".7"/>
    <path d="M101 43c-6-20 7-34 19-30 11 4 15 18 12 31" fill="#8bc55b" stroke="#0b385b" stroke-width="5" stroke-linejoin="round"/>
    <path d="M134 41c8-20 28-23 37-12 8 12-2 28-19 34" fill="#8bc55b" stroke="#0b385b" stroke-width="5" stroke-linejoin="round"/>
    <path d="M50 137c17-13 33-9 44 8" fill="none" stroke="#0b385b" stroke-width="10" stroke-linecap="round"/>
    <path d="M194 149c14-8 28-2 38 14" fill="none" stroke="#0b385b" stroke-width="10" stroke-linecap="round"/>
    <g transform="rotate(-18 220 158)">
      <circle cx="220" cy="158" r="22" fill="none" stroke="#0b385b" stroke-width="8"/>
      <path d="M236 174l25 25" stroke="#0b385b" stroke-width="9" stroke-linecap="round"/>
      <circle cx="220" cy="158" r="14" fill="#7ad6d8" opacity=".34"/>
    </g>
    <path d="M111 193c-3 15-18 20-32 12M165 193c5 15 20 18 33 8" fill="none" stroke="#0b385b" stroke-width="8" stroke-linecap="round"/>
  </g>
  <g fill="#0b77f0">
    <circle cx="222" cy="31" r="5"/>
    <circle cx="42" cy="132" r="4"/>
    <circle cx="207" cy="115" r="3"/>
  </g>
</svg>
